<svg xmlns="http://www.w3.org/2000/svg" width="436.74" height="295.82" viewBox="0 0 436.74 295.82">
  <g id="Camada_1" data-name="Camada 1" transform="translate(45 -0.002)">
    <g id="Grupo_3520" data-name="Grupo 3520" transform="translate(-45 0.11)">
      <path id="Caminho_8575" data-name="Caminho 8575" d="M5.5-15.422A3.431,3.431,0,0,1,8.239-14.2,4.752,4.752,0,0,1,9.284-11,4.652,4.652,0,0,1,8.272-7.876,3.327,3.327,0,0,1,5.61-6.688H3.542a.078.078,0,0,0-.088.088V-.22a.194.194,0,0,1-.22.22H1.562a.194.194,0,0,1-.22-.22V-15.2a.194.194,0,0,1,.22-.22Zm-.33,7.04a1.763,1.763,0,0,0,1.452-.693,2.945,2.945,0,0,0,.55-1.881,3.079,3.079,0,0,0-.55-1.925A1.743,1.743,0,0,0,5.17-13.6H3.542a.078.078,0,0,0-.088.088V-8.47a.078.078,0,0,0,.088.088ZM16.236,0a.226.226,0,0,1-.242-.2l-.484-2.53a.074.074,0,0,0-.033-.066.136.136,0,0,0-.077-.022H11.814a.136.136,0,0,0-.077.022.074.074,0,0,0-.033.066L11.242-.2A.21.21,0,0,1,11,0H9.328a.2.2,0,0,1-.165-.066A.2.2,0,0,1,9.13-.242L12.408-15.2a.226.226,0,0,1,.242-.2h1.958a.21.21,0,0,1,.242.2l3.3,14.96V-.2a.175.175,0,0,1-.2.2ZM12.078-4.576q0,.088.066.088H15.07q.066,0,.066-.088l-1.5-7.81q-.022-.044-.044-.044t-.044.044Zm13.486-10.6a.194.194,0,0,1,.22-.22h1.65a.194.194,0,0,1,.22.22V-.22a.194.194,0,0,1-.22.22H25.542A.242.242,0,0,1,25.3-.176L21.56-10.23a.053.053,0,0,0-.066-.033.052.052,0,0,0-.044.055L21.472-.22a.194.194,0,0,1-.22.22H19.58a.194.194,0,0,1-.22-.22V-15.18a.194.194,0,0,1,.22-.22h1.87a.242.242,0,0,1,.242.176L25.454-5.17q.022.066.066.055t.044-.077Zm11.792-.22a.194.194,0,0,1,.22.22v1.386a.194.194,0,0,1-.22.22H34.474a.078.078,0,0,0-.088.088V-.22a.194.194,0,0,1-.22.22H32.494a.194.194,0,0,1-.22-.22V-13.486a.078.078,0,0,0-.088-.088H29.458a.194.194,0,0,1-.22-.22V-15.18a.194.194,0,0,1,.22-.22ZM43.032.176a3.719,3.719,0,0,1-2.893-1.2A4.514,4.514,0,0,1,39.05-4.18v-11a.194.194,0,0,1,.22-.22h1.672a.194.194,0,0,1,.22.22V-3.96a2.573,2.573,0,0,0,.517,1.672,1.658,1.658,0,0,0,1.353.638,1.681,1.681,0,0,0,1.375-.638,2.573,2.573,0,0,0,.517-1.672V-15.18a.194.194,0,0,1,.22-.22h1.672a.194.194,0,0,1,.22.22v11a4.487,4.487,0,0,1-1.1,3.157A3.753,3.753,0,0,1,43.032.176ZM55.33,0a.257.257,0,0,1-.264-.176L53.042-6.732a.086.086,0,0,0-.088-.066h-1.54a.078.078,0,0,0-.088.088V-.22a.194.194,0,0,1-.22.22H49.434a.194.194,0,0,1-.22-.22V-15.18a.194.194,0,0,1,.22-.22h3.938a3.588,3.588,0,0,1,1.98.55A3.636,3.636,0,0,1,56.683-13.3a5.268,5.268,0,0,1,.473,2.277,4.857,4.857,0,0,1-.572,2.409,3.429,3.429,0,0,1-1.562,1.485A.125.125,0,0,0,54.978-7L57.222-.242l.022.088q0,.154-.2.154ZM51.414-13.574a.078.078,0,0,0-.088.088v4.928a.078.078,0,0,0,.088.088h1.628a1.763,1.763,0,0,0,1.452-.693A2.87,2.87,0,0,0,55.044-11a2.945,2.945,0,0,0-.55-1.881,1.763,1.763,0,0,0-1.452-.693ZM64.856,0a.257.257,0,0,1-.264-.176L62.568-6.732A.086.086,0,0,0,62.48-6.8H60.94a.078.078,0,0,0-.088.088V-.22a.194.194,0,0,1-.22.22H58.96a.194.194,0,0,1-.22-.22V-15.18a.194.194,0,0,1,.22-.22H62.9a3.588,3.588,0,0,1,1.98.55A3.636,3.636,0,0,1,66.209-13.3a5.268,5.268,0,0,1,.473,2.277,4.857,4.857,0,0,1-.572,2.409,3.429,3.429,0,0,1-1.562,1.485A.125.125,0,0,0,64.5-7L66.748-.242l.022.088q0,.154-.2.154ZM60.94-13.574a.078.078,0,0,0-.088.088v4.928a.078.078,0,0,0,.088.088h1.628a1.763,1.763,0,0,0,1.452-.693A2.87,2.87,0,0,0,64.57-11a2.945,2.945,0,0,0-.55-1.881,1.763,1.763,0,0,0-1.452-.693ZM68.486,0a.194.194,0,0,1-.22-.22V-15.18a.194.194,0,0,1,.22-.22h1.672a.194.194,0,0,1,.22.22V-.22a.194.194,0,0,1-.22.22Zm4.4,0a.194.194,0,0,1-.22-.22V-15.18a.194.194,0,0,1,.22-.22h1.672a.194.194,0,0,1,.22.22V-1.914a.078.078,0,0,0,.088.088h4.928a.194.194,0,0,1,.22.22V-.22a.194.194,0,0,1-.22.22Zm13.9-15.18a.194.194,0,0,1,.22-.22h1.672a.194.194,0,0,1,.22.22V-.22a.194.194,0,0,1-.22.22H87.01a.194.194,0,0,1-.22-.22V-6.71A.078.078,0,0,0,86.7-6.8H83.38a.078.078,0,0,0-.088.088V-.22a.194.194,0,0,1-.22.22H81.4a.194.194,0,0,1-.22-.22V-15.18a.194.194,0,0,1,.22-.22h1.672a.194.194,0,0,1,.22.22v6.468a.078.078,0,0,0,.088.088H86.7a.078.078,0,0,0,.088-.088ZM97.218,0a.226.226,0,0,1-.242-.2l-.484-2.53a.074.074,0,0,0-.033-.066.136.136,0,0,0-.077-.022H92.8a.136.136,0,0,0-.077.022.074.074,0,0,0-.033.066L92.224-.2a.21.21,0,0,1-.242.2H90.31a.2.2,0,0,1-.165-.066.2.2,0,0,1-.033-.176L93.39-15.2a.226.226,0,0,1,.242-.2H95.59a.21.21,0,0,1,.242.2l3.3,14.96V-.2a.175.175,0,0,1-.2.2ZM93.06-4.576q0,.088.066.088h2.926q.066,0,.066-.088l-1.5-7.81q-.022-.044-.044-.044t-.044.044Z" transform="translate(48.09 148.695)" fill="#6e6f70"/>
      <path id="Caminho_8571" data-name="Caminho 8571" d="M4.312.176A3.821,3.821,0,0,1,1.485-.891,3.793,3.793,0,0,1,.418-3.7V-5.434a.194.194,0,0,1,.22-.22H2.31a.194.194,0,0,1,.22.22v1.782a2.1,2.1,0,0,0,.5,1.441,1.636,1.636,0,0,0,1.287.561A1.636,1.636,0,0,0,5.6-2.211a2.1,2.1,0,0,0,.5-1.441V-15.18a.194.194,0,0,1,.22-.22H7.986a.194.194,0,0,1,.22.22V-3.7a3.793,3.793,0,0,1-1.067,2.8A3.821,3.821,0,0,1,4.312.176Zm9.746,0a3.926,3.926,0,0,1-2.9-1.1,3.955,3.955,0,0,1-1.1-2.926v-7.678a3.992,3.992,0,0,1,1.1-2.937,3.9,3.9,0,0,1,2.9-1.111,3.97,3.97,0,0,1,2.937,1.111,3.97,3.97,0,0,1,1.111,2.937V-3.85A3.933,3.933,0,0,1,16.995-.924,3.992,3.992,0,0,1,14.058.176Zm0-1.826a1.807,1.807,0,0,0,1.408-.583,2.19,2.19,0,0,0,.528-1.529v-7.876a2.19,2.19,0,0,0-.528-1.529,1.807,1.807,0,0,0-1.408-.583,1.747,1.747,0,0,0-1.375.583,2.219,2.219,0,0,0-.517,1.529v7.876a2.219,2.219,0,0,0,.517,1.529A1.747,1.747,0,0,0,14.058-1.65Zm13.4-12.144a.194.194,0,0,1-.22.22h-4.95a.078.078,0,0,0-.088.088v4.774a.078.078,0,0,0,.088.088h3.036a.194.194,0,0,1,.22.22v1.386a.194.194,0,0,1-.22.22H22.286a.078.078,0,0,0-.088.088v4.8a.078.078,0,0,0,.088.088h4.95a.194.194,0,0,1,.22.22V-.22a.194.194,0,0,1-.22.22h-6.93a.194.194,0,0,1-.22-.22V-15.18a.194.194,0,0,1,.22-.22h6.93a.194.194,0,0,1,.22.22ZM29.37,0a.194.194,0,0,1-.22-.22V-15.18a.194.194,0,0,1,.22-.22h1.672a.194.194,0,0,1,.22.22V-1.914a.078.078,0,0,0,.088.088h4.928a.194.194,0,0,1,.22.22V-.22a.194.194,0,0,1-.22.22Zm13.9-15.18a.194.194,0,0,1,.22-.22h1.672a.194.194,0,0,1,.22.22V-.22a.194.194,0,0,1-.22.22H43.494a.194.194,0,0,1-.22-.22V-6.71a.078.078,0,0,0-.088-.088H39.864a.078.078,0,0,0-.088.088V-.22a.194.194,0,0,1-.22.22H37.884a.194.194,0,0,1-.22-.22V-15.18a.194.194,0,0,1,.22-.22h1.672a.194.194,0,0,1,.22.22v6.468a.078.078,0,0,0,.088.088h3.322a.078.078,0,0,0,.088-.088ZM51.37.176a3.926,3.926,0,0,1-2.9-1.1,3.955,3.955,0,0,1-1.1-2.926v-7.678a3.992,3.992,0,0,1,1.1-2.937,3.9,3.9,0,0,1,2.9-1.111,3.97,3.97,0,0,1,2.937,1.111,3.97,3.97,0,0,1,1.111,2.937V-3.85A3.933,3.933,0,0,1,54.307-.924,3.992,3.992,0,0,1,51.37.176Zm0-1.826a1.807,1.807,0,0,0,1.408-.583,2.19,2.19,0,0,0,.528-1.529v-7.876a2.19,2.19,0,0,0-.528-1.529,1.807,1.807,0,0,0-1.408-.583A1.747,1.747,0,0,0,50-13.167a2.219,2.219,0,0,0-.517,1.529v7.876A2.219,2.219,0,0,0,50-2.233,1.747,1.747,0,0,0,51.37-1.65Z" transform="translate(50.203 41.999)" fill="#009035"/>
      <path id="Caminho_8574" data-name="Caminho 8574" d="M4.708.176A3.751,3.751,0,0,1,1.9-.913,3.9,3.9,0,0,1,.836-3.762v-.572a.194.194,0,0,1,.22-.22H2.684a.194.194,0,0,1,.22.22v.462A2.439,2.439,0,0,0,3.41-2.255a1.616,1.616,0,0,0,1.3.6,1.674,1.674,0,0,0,1.309-.583,2.219,2.219,0,0,0,.517-1.529,2.232,2.232,0,0,0-.275-1.122,3.253,3.253,0,0,0-.726-.869Q5.082-6.138,4.07-6.886a21.622,21.622,0,0,1-1.76-1.43,5.314,5.314,0,0,1-1.078-1.43A4.146,4.146,0,0,1,.792-11.7a3.8,3.8,0,0,1,1.056-2.827A3.741,3.741,0,0,1,4.6-15.576a3.72,3.72,0,0,1,2.827,1.122,4.1,4.1,0,0,1,1.067,2.948v.55a.194.194,0,0,1-.22.22H6.644a.194.194,0,0,1-.22-.22v-.594a2.4,2.4,0,0,0-.506-1.6,1.639,1.639,0,0,0-1.32-.6,1.607,1.607,0,0,0-1.254.539A2.177,2.177,0,0,0,2.86-11.7a2.3,2.3,0,0,0,.484,1.485A10.471,10.471,0,0,0,5.214-8.6Q6.534-7.612,7.2-7A4.593,4.593,0,0,1,8.239-5.643,3.919,3.919,0,0,1,8.6-3.894,4.068,4.068,0,0,1,7.524-.935,3.747,3.747,0,0,1,4.708.176Zm9.284,0a3.926,3.926,0,0,1-2.9-1.1,3.955,3.955,0,0,1-1.1-2.926v-7.678a3.992,3.992,0,0,1,1.1-2.937,3.9,3.9,0,0,1,2.9-1.111,3.97,3.97,0,0,1,2.937,1.111,3.97,3.97,0,0,1,1.111,2.937V-3.85A3.933,3.933,0,0,1,16.929-.924,3.992,3.992,0,0,1,13.992.176Zm0-1.826A1.807,1.807,0,0,0,15.4-2.233a2.19,2.19,0,0,0,.528-1.529v-7.876a2.19,2.19,0,0,0-.528-1.529,1.807,1.807,0,0,0-1.408-.583,1.747,1.747,0,0,0-1.375.583,2.219,2.219,0,0,0-.517,1.529v7.876a2.219,2.219,0,0,0,.517,1.529A1.747,1.747,0,0,0,13.992-1.65ZM20.24,0a.194.194,0,0,1-.22-.22V-15.18a.194.194,0,0,1,.22-.22h1.672a.194.194,0,0,1,.22.22V-1.914a.078.078,0,0,0,.088.088h4.928a.194.194,0,0,1,.22.22V-.22a.194.194,0,0,1-.22.22ZM35.31,0a.226.226,0,0,1-.242-.2l-.484-2.53a.074.074,0,0,0-.033-.066.136.136,0,0,0-.077-.022H30.888a.136.136,0,0,0-.077.022.074.074,0,0,0-.033.066L30.316-.2a.21.21,0,0,1-.242.2H28.4a.2.2,0,0,1-.165-.066A.2.2,0,0,1,28.2-.242L31.482-15.2a.226.226,0,0,1,.242-.2h1.958a.21.21,0,0,1,.242.2l3.3,14.96V-.2a.175.175,0,0,1-.2.2ZM31.152-4.576q0,.088.066.088h2.926q.066,0,.066-.088l-1.5-7.81q-.022-.044-.044-.044t-.044.044ZM42.614,0a.194.194,0,0,1-.22-.22V-15.18a.194.194,0,0,1,.22-.22h3.608a3.839,3.839,0,0,1,2.9,1.122A4.2,4.2,0,0,1,50.2-11.242v7.084a4.2,4.2,0,0,1-1.078,3.036A3.839,3.839,0,0,1,46.222,0Zm1.892-1.914a.078.078,0,0,0,.088.088L46.2-1.848A1.617,1.617,0,0,0,47.542-2.5a2.906,2.906,0,0,0,.528-1.771v-6.864a2.858,2.858,0,0,0-.506-1.782,1.629,1.629,0,0,0-1.364-.66H44.594a.078.078,0,0,0-.088.088ZM55.968.176a3.926,3.926,0,0,1-2.9-1.1,3.955,3.955,0,0,1-1.1-2.926v-7.678a3.992,3.992,0,0,1,1.1-2.937,3.9,3.9,0,0,1,2.9-1.111A3.97,3.97,0,0,1,58.9-14.465a3.97,3.97,0,0,1,1.111,2.937V-3.85A3.933,3.933,0,0,1,58.9-.924,3.992,3.992,0,0,1,55.968.176Zm0-1.826a1.807,1.807,0,0,0,1.408-.583A2.19,2.19,0,0,0,57.9-3.762v-7.876a2.19,2.19,0,0,0-.528-1.529,1.807,1.807,0,0,0-1.408-.583,1.747,1.747,0,0,0-1.375.583,2.219,2.219,0,0,0-.517,1.529v7.876a2.219,2.219,0,0,0,.517,1.529A1.747,1.747,0,0,0,55.968-1.65ZM70.092-15.422A3.431,3.431,0,0,1,72.831-14.2,4.752,4.752,0,0,1,73.876-11a4.652,4.652,0,0,1-1.012,3.124A3.327,3.327,0,0,1,70.2-6.688H68.134a.078.078,0,0,0-.088.088V-.22a.194.194,0,0,1-.22.22H66.154a.194.194,0,0,1-.22-.22V-15.2a.194.194,0,0,1,.22-.22Zm-.33,7.04a1.763,1.763,0,0,0,1.452-.693,2.945,2.945,0,0,0,.55-1.881,3.079,3.079,0,0,0-.55-1.925,1.743,1.743,0,0,0-1.452-.715H68.134a.078.078,0,0,0-.088.088V-8.47a.078.078,0,0,0,.088.088Zm13.046-5.412a.194.194,0,0,1-.22.22h-4.95a.078.078,0,0,0-.088.088v4.774a.078.078,0,0,0,.088.088h3.036a.194.194,0,0,1,.22.22v1.386a.194.194,0,0,1-.22.22H77.638a.078.078,0,0,0-.088.088v4.8a.078.078,0,0,0,.088.088h4.95a.194.194,0,0,1,.22.22V-.22a.194.194,0,0,1-.22.22h-6.93a.194.194,0,0,1-.22-.22V-15.18a.194.194,0,0,1,.22-.22h6.93a.194.194,0,0,1,.22.22Zm-4.62-3.014a.185.185,0,0,1-.176-.077.179.179,0,0,1,.022-.187L79.4-19.448a.319.319,0,0,1,.264-.154H81a.185.185,0,0,1,.176.077.179.179,0,0,1-.022.187l-1.628,2.4a.3.3,0,0,1-.264.132Z" transform="translate(51.119 280.553)" fill="#009035"/>
      <path id="Caminho_8573" data-name="Caminho 8573" d="M8.778-15.4a.194.194,0,0,1,.22.22v1.386a.194.194,0,0,1-.22.22H5.9a.078.078,0,0,0-.088.088V-.22a.194.194,0,0,1-.22.22H3.916A.194.194,0,0,1,3.7-.22V-13.486a.078.078,0,0,0-.088-.088H.88a.194.194,0,0,1-.22-.22V-15.18a.194.194,0,0,1,.22-.22ZM13.684.176a3.926,3.926,0,0,1-2.9-1.1A3.955,3.955,0,0,1,9.68-3.85v-7.678a3.992,3.992,0,0,1,1.1-2.937,3.9,3.9,0,0,1,2.9-1.111,3.97,3.97,0,0,1,2.937,1.111,3.97,3.97,0,0,1,1.111,2.937V-3.85A3.933,3.933,0,0,1,16.621-.924,3.992,3.992,0,0,1,13.684.176Zm0-1.826a1.807,1.807,0,0,0,1.408-.583,2.19,2.19,0,0,0,.528-1.529v-7.876a2.19,2.19,0,0,0-.528-1.529,1.807,1.807,0,0,0-1.408-.583,1.747,1.747,0,0,0-1.375.583,2.219,2.219,0,0,0-.517,1.529v7.876a2.219,2.219,0,0,0,.517,1.529A1.747,1.747,0,0,0,13.684-1.65ZM25.828,0a.257.257,0,0,1-.264-.176L23.54-6.732a.086.086,0,0,0-.088-.066h-1.54a.078.078,0,0,0-.088.088V-.22A.194.194,0,0,1,21.6,0H19.932a.194.194,0,0,1-.22-.22V-15.18a.194.194,0,0,1,.22-.22H23.87a3.588,3.588,0,0,1,1.98.55A3.636,3.636,0,0,1,27.181-13.3a5.268,5.268,0,0,1,.473,2.277,4.857,4.857,0,0,1-.572,2.409A3.429,3.429,0,0,1,25.52-7.128.125.125,0,0,0,25.476-7L27.72-.242l.022.088q0,.154-.2.154ZM21.912-13.574a.078.078,0,0,0-.088.088v4.928a.078.078,0,0,0,.088.088H23.54a1.763,1.763,0,0,0,1.452-.693A2.87,2.87,0,0,0,25.542-11a2.945,2.945,0,0,0-.55-1.881,1.763,1.763,0,0,0-1.452-.693Zm13.53-1.606a.194.194,0,0,1,.22-.22h1.65a.194.194,0,0,1,.22.22V-.22a.194.194,0,0,1-.22.22H35.42a.242.242,0,0,1-.242-.176L31.438-10.23a.053.053,0,0,0-.066-.033.052.052,0,0,0-.044.055L31.35-.22a.194.194,0,0,1-.22.22H29.458a.194.194,0,0,1-.22-.22V-15.18a.194.194,0,0,1,.22-.22h1.87a.242.242,0,0,1,.242.176L35.332-5.17q.022.066.066.055t.044-.077ZM43.516.176a3.926,3.926,0,0,1-2.9-1.1,3.955,3.955,0,0,1-1.1-2.926v-7.678a3.992,3.992,0,0,1,1.1-2.937,3.9,3.9,0,0,1,2.9-1.111,3.97,3.97,0,0,1,2.937,1.111,3.97,3.97,0,0,1,1.111,2.937V-3.85A3.933,3.933,0,0,1,46.453-.924,3.992,3.992,0,0,1,43.516.176Zm0-1.826a1.807,1.807,0,0,0,1.408-.583,2.19,2.19,0,0,0,.528-1.529v-7.876a2.19,2.19,0,0,0-.528-1.529,1.807,1.807,0,0,0-1.408-.583,1.747,1.747,0,0,0-1.375.583,2.219,2.219,0,0,0-.517,1.529v7.876a2.219,2.219,0,0,0,.517,1.529A1.747,1.747,0,0,0,43.516-1.65ZM49.038,0a.194.194,0,0,1-.22-.22V-1.694a.693.693,0,0,1,.066-.264l5.1-11.506a.073.073,0,0,0,0-.077.074.074,0,0,0-.066-.033H49.038a.194.194,0,0,1-.22-.22V-15.18a.194.194,0,0,1,.22-.22h7.018a.194.194,0,0,1,.22.22v1.474a.843.843,0,0,1-.066.264L51.084-1.936a.073.073,0,0,0,0,.077.074.074,0,0,0,.066.033h4.906a.194.194,0,0,1,.22.22V-.22a.194.194,0,0,1-.22.22ZM65.3-13.794a.194.194,0,0,1-.22.22h-4.95a.078.078,0,0,0-.088.088v4.774a.078.078,0,0,0,.088.088h3.036a.194.194,0,0,1,.22.22v1.386a.194.194,0,0,1-.22.22H60.126a.078.078,0,0,0-.088.088v4.8a.078.078,0,0,0,.088.088h4.95a.194.194,0,0,1,.22.22V-.22a.194.194,0,0,1-.22.22h-6.93a.194.194,0,0,1-.22-.22V-15.18a.194.194,0,0,1,.22-.22h6.93a.194.194,0,0,1,.22.22ZM67.21,0a.194.194,0,0,1-.22-.22V-15.18a.194.194,0,0,1,.22-.22h1.672a.194.194,0,0,1,.22.22V-1.914a.078.078,0,0,0,.088.088h4.928a.194.194,0,0,1,.22.22V-.22a.194.194,0,0,1-.22.22ZM79.156.176a3.926,3.926,0,0,1-2.9-1.1,3.955,3.955,0,0,1-1.1-2.926v-7.678a3.992,3.992,0,0,1,1.1-2.937,3.9,3.9,0,0,1,2.9-1.111,3.97,3.97,0,0,1,2.937,1.111A3.97,3.97,0,0,1,83.2-11.528V-3.85A3.933,3.933,0,0,1,82.093-.924,3.992,3.992,0,0,1,79.156.176Zm0-1.826a1.807,1.807,0,0,0,1.408-.583,2.19,2.19,0,0,0,.528-1.529v-7.876a2.19,2.19,0,0,0-.528-1.529,1.807,1.807,0,0,0-1.408-.583,1.747,1.747,0,0,0-1.375.583,2.219,2.219,0,0,0-.517,1.529v7.876a2.219,2.219,0,0,0,.517,1.529A1.747,1.747,0,0,0,79.156-1.65Z" transform="translate(51.12 215.331)" fill="#6e6f70"/>
      <path id="Caminho_8572" data-name="Caminho 8572" d="M7.392,0A.226.226,0,0,1,7.15-.2l-.484-2.53a.074.074,0,0,0-.033-.066.136.136,0,0,0-.077-.022H2.97a.136.136,0,0,0-.077.022.074.074,0,0,0-.033.066L2.4-.2a.21.21,0,0,1-.242.2H.484A.2.2,0,0,1,.319-.066.2.2,0,0,1,.286-.242L3.564-15.2a.226.226,0,0,1,.242-.2H5.764a.21.21,0,0,1,.242.2l3.3,14.96V-.2a.175.175,0,0,1-.2.2ZM3.234-4.576q0,.088.066.088H6.226q.066,0,.066-.088l-1.5-7.81q-.022-.044-.044-.044t-.044.044Zm15.29.374a4.124,4.124,0,0,1-1.133,3.1A4.1,4.1,0,0,1,14.41,0H10.736a.194.194,0,0,1-.22-.22V-15.18a.194.194,0,0,1,.22-.22H14.1a4.448,4.448,0,0,1,3.135,1.045,3.94,3.94,0,0,1,1.133,3.047A3.379,3.379,0,0,1,16.676-8.03q-.11.066-.022.11a3.656,3.656,0,0,1,1.375,1.474A4.779,4.779,0,0,1,18.524-4.2Zm-5.808-9.372a.078.078,0,0,0-.088.088v4.664a.078.078,0,0,0,.088.088h1.408a2.064,2.064,0,0,0,1.606-.627A2.5,2.5,0,0,0,16.3-11.11a2.654,2.654,0,0,0-.572-1.815,2.028,2.028,0,0,0-1.606-.649ZM14.234-1.848a1.988,1.988,0,0,0,1.595-.682,2.893,2.893,0,0,0,.583-1.936,3.109,3.109,0,0,0-.572-1.991,1.916,1.916,0,0,0-1.584-.715h-1.54a.078.078,0,0,0-.088.088v5.148a.078.078,0,0,0,.088.088ZM25.674,0a.226.226,0,0,1-.242-.2l-.484-2.53a.074.074,0,0,0-.033-.066.136.136,0,0,0-.077-.022H21.252a.136.136,0,0,0-.077.022.074.074,0,0,0-.033.066L20.68-.2a.21.21,0,0,1-.242.2H18.766A.2.2,0,0,1,18.6-.066a.2.2,0,0,1-.033-.176L21.846-15.2a.226.226,0,0,1,.242-.2h1.958a.21.21,0,0,1,.242.2l3.3,14.96V-.2a.175.175,0,0,1-.2.2ZM21.516-4.576q0,.088.066.088h2.926q.066,0,.066-.088l-1.5-7.81q-.022-.044-.044-.044t-.044.044ZM29.018,0a.194.194,0,0,1-.22-.22V-15.18a.194.194,0,0,1,.22-.22H30.69a.194.194,0,0,1,.22.22V-.22a.194.194,0,0,1-.22.22Zm3.74,0a.189.189,0,0,1-.165-.077.186.186,0,0,1-.011-.187l3.058-7.37a.11.11,0,0,0,0-.132l-3.058-7.37-.022-.088q0-.176.2-.176h1.716a.242.242,0,0,1,.242.176l2,5.3q.022.066.066.066t.066-.066l1.98-5.3a.242.242,0,0,1,.242-.176h1.716a.189.189,0,0,1,.165.077.186.186,0,0,1,.011.187L37.906-7.744a.2.2,0,0,0,0,.132L40.964-.264l.022.088q0,.176-.2.176H39.094a.242.242,0,0,1-.242-.176l-2-5.28q-.022-.066-.066-.066t-.066.066l-2,5.28A.242.242,0,0,1,34.474,0ZM46.112.176a3.926,3.926,0,0,1-2.9-1.1,3.955,3.955,0,0,1-1.1-2.926v-7.678a3.992,3.992,0,0,1,1.1-2.937,3.9,3.9,0,0,1,2.9-1.111,3.97,3.97,0,0,1,2.937,1.111,3.97,3.97,0,0,1,1.111,2.937V-3.85A3.933,3.933,0,0,1,49.049-.924,3.992,3.992,0,0,1,46.112.176Zm0-1.826a1.807,1.807,0,0,0,1.408-.583,2.19,2.19,0,0,0,.528-1.529v-7.876a2.19,2.19,0,0,0-.528-1.529,1.807,1.807,0,0,0-1.408-.583,1.747,1.747,0,0,0-1.375.583,2.219,2.219,0,0,0-.517,1.529v7.876a2.219,2.219,0,0,0,.517,1.529A1.747,1.747,0,0,0,46.112-1.65ZM56.32,0a.194.194,0,0,1-.22-.22V-15.18a.194.194,0,0,1,.22-.22h3.608a3.839,3.839,0,0,1,2.9,1.122,4.2,4.2,0,0,1,1.078,3.036v7.084a4.2,4.2,0,0,1-1.078,3.036A3.839,3.839,0,0,1,59.928,0Zm1.892-1.914a.078.078,0,0,0,.088.088l1.606-.022A1.617,1.617,0,0,0,61.248-2.5a2.906,2.906,0,0,0,.528-1.771v-6.864a2.858,2.858,0,0,0-.506-1.782,1.629,1.629,0,0,0-1.364-.66H58.3a.078.078,0,0,0-.088.088ZM69.674.176a3.926,3.926,0,0,1-2.9-1.1,3.955,3.955,0,0,1-1.1-2.926v-7.678a3.992,3.992,0,0,1,1.1-2.937,3.9,3.9,0,0,1,2.9-1.111,3.97,3.97,0,0,1,2.937,1.111,3.97,3.97,0,0,1,1.111,2.937V-3.85A3.933,3.933,0,0,1,72.611-.924,3.992,3.992,0,0,1,69.674.176Zm0-1.826a1.807,1.807,0,0,0,1.408-.583,2.19,2.19,0,0,0,.528-1.529v-7.876a2.19,2.19,0,0,0-.528-1.529,1.807,1.807,0,0,0-1.408-.583,1.747,1.747,0,0,0-1.375.583,2.219,2.219,0,0,0-.517,1.529v7.876A2.219,2.219,0,0,0,68.3-2.233,1.747,1.747,0,0,0,69.674-1.65ZM82.61.176A3.821,3.821,0,0,1,79.783-.891a3.793,3.793,0,0,1-1.067-2.8V-5.434a.194.194,0,0,1,.22-.22h1.672a.194.194,0,0,1,.22.22v1.782a2.1,2.1,0,0,0,.5,1.441,1.636,1.636,0,0,0,1.287.561A1.636,1.636,0,0,0,83.9-2.211a2.1,2.1,0,0,0,.5-1.441V-15.18a.194.194,0,0,1,.22-.22h1.672a.194.194,0,0,1,.22.22V-3.7a3.793,3.793,0,0,1-1.067,2.8A3.821,3.821,0,0,1,82.61.176Zm9.746,0a3.926,3.926,0,0,1-2.9-1.1,3.955,3.955,0,0,1-1.1-2.926v-7.678a3.992,3.992,0,0,1,1.1-2.937,3.9,3.9,0,0,1,2.9-1.111,3.97,3.97,0,0,1,2.937,1.111A3.97,3.97,0,0,1,96.4-11.528V-3.85A3.933,3.933,0,0,1,95.293-.924,3.992,3.992,0,0,1,92.356.176Zm0-1.826a1.807,1.807,0,0,0,1.408-.583,2.19,2.19,0,0,0,.528-1.529v-7.876a2.19,2.19,0,0,0-.528-1.529,1.807,1.807,0,0,0-1.408-.583,1.747,1.747,0,0,0-1.375.583,2.219,2.219,0,0,0-.517,1.529v7.876a2.219,2.219,0,0,0,.517,1.529A1.747,1.747,0,0,0,92.356-1.65Zm13.4-12.144a.194.194,0,0,1-.22.22h-4.95a.078.078,0,0,0-.088.088v4.774a.078.078,0,0,0,.088.088h3.036a.194.194,0,0,1,.22.22v1.386a.194.194,0,0,1-.22.22h-3.036a.078.078,0,0,0-.088.088v4.8a.078.078,0,0,0,.088.088h4.95a.194.194,0,0,1,.22.22V-.22a.194.194,0,0,1-.22.22H98.6a.194.194,0,0,1-.22-.22V-15.18a.194.194,0,0,1,.22-.22h6.93a.194.194,0,0,1,.22.22ZM107.668,0a.194.194,0,0,1-.22-.22V-15.18a.194.194,0,0,1,.22-.22h1.672a.194.194,0,0,1,.22.22V-1.914a.078.078,0,0,0,.088.088h4.928a.194.194,0,0,1,.22.22V-.22a.194.194,0,0,1-.22.22Zm13.9-15.18a.194.194,0,0,1,.22-.22h1.672a.194.194,0,0,1,.22.22V-.22a.194.194,0,0,1-.22.22h-1.672a.194.194,0,0,1-.22-.22V-6.71a.078.078,0,0,0-.088-.088h-3.322a.078.078,0,0,0-.088.088V-.22a.194.194,0,0,1-.22.22h-1.672a.194.194,0,0,1-.22-.22V-15.18a.194.194,0,0,1,.22-.22h1.672a.194.194,0,0,1,.22.22v6.468a.078.078,0,0,0,.088.088h3.322a.078.078,0,0,0,.088-.088Zm8.1,15.356a3.926,3.926,0,0,1-2.9-1.1,3.955,3.955,0,0,1-1.1-2.926v-7.678a3.992,3.992,0,0,1,1.1-2.937,3.9,3.9,0,0,1,2.9-1.111,3.97,3.97,0,0,1,2.937,1.111,3.97,3.97,0,0,1,1.111,2.937V-3.85A3.933,3.933,0,0,1,132.6-.924,3.992,3.992,0,0,1,129.668.176Zm0-1.826a1.807,1.807,0,0,0,1.408-.583,2.19,2.19,0,0,0,.528-1.529v-7.876a2.19,2.19,0,0,0-.528-1.529,1.807,1.807,0,0,0-1.408-.583,1.747,1.747,0,0,0-1.375.583,2.219,2.219,0,0,0-.517,1.529v7.876a2.219,2.219,0,0,0,.517,1.529A1.747,1.747,0,0,0,129.668-1.65Z" transform="translate(51.12 97.331)" fill="#6e6f70"/>
      <path id="Caminho_8352" data-name="Caminho 8352" d="M223.1,163.668v107.76H206.85v-1.343h14.905V163.652H223.1ZM206.85,35.68H223.1V142.113h-1.343V37.007H206.85V35.68Z" transform="translate(196.05 22.581)" fill="#009035" fill-rule="evenodd"/>
      <rect id="Retângulo_1474" data-name="Retângulo 1474" width="38.41" height="38.41" transform="translate(0 15.708)" fill="#009035"/>
      <path id="Caminho_8576" data-name="Caminho 8576" d="M1.452,0a.255.255,0,0,1-.187-.077.255.255,0,0,1-.077-.187V-15.136a.255.255,0,0,1,.077-.187.255.255,0,0,1,.187-.077H5.214a4.066,4.066,0,0,1,3.025,1.144A4.155,4.155,0,0,1,9.372-11.2v7A4.155,4.155,0,0,1,8.239-1.144,4.066,4.066,0,0,1,5.214,0ZM3.74-2.31a.1.1,0,0,0,.11.11l1.32-.022A1.419,1.419,0,0,0,6.347-2.8,2.567,2.567,0,0,0,6.82-4.356v-6.688a2.506,2.506,0,0,0-.451-1.573A1.462,1.462,0,0,0,5.148-13.2H3.85a.1.1,0,0,0-.11.11Z" transform="translate(14.103 42.081)" fill="#fff"/>
      <rect id="Retângulo_1475" data-name="Retângulo 1475" width="38.41" height="38.41" transform="translate(0 256.206)" fill="#009035"/>
      <path id="Caminho_8580" data-name="Caminho 8580" d="M6.76,0A.226.226,0,0,1,6.5-.22l-.38-2.1q0-.1-.12-.1H3.08q-.12,0-.12.1L2.58-.22A.226.226,0,0,1,2.32,0H.5Q.22,0,.28-.26L3.24-13.78A.24.24,0,0,1,3.5-14H5.62a.24.24,0,0,1,.26.22L8.84-.26v.08q0,.18-.22.18ZM3.32-4.34q-.02.1.1.1H5.64q.12,0,.1-.1L4.58-10.66q-.02-.06-.06-.06t-.06.06Z" transform="translate(14.705 283.411)" fill="#fff"/>
      <rect id="Retângulo_1476" data-name="Retângulo 1476" width="38.41" height="38.41" transform="translate(0 122.158)" fill="#868789"/>
      <path id="Caminho_8578" data-name="Caminho 8578" d="M4.73.176A4.029,4.029,0,0,1,1.881-.792,3.4,3.4,0,0,1,.836-3.41V-7.854a3.376,3.376,0,0,1,1.045-2.585,4,4,0,0,1,2.849-.979,4.1,4.1,0,0,1,2.86.957A3.137,3.137,0,0,1,8.646-8.03v.308a.255.255,0,0,1-.077.187.255.255,0,0,1-.187.077L6.358-7.37a.233.233,0,0,1-.264-.264v-.22a1.347,1.347,0,0,0-.385-.957,1.289,1.289,0,0,0-.979-.407,1.211,1.211,0,0,0-.968.44,1.672,1.672,0,0,0-.374,1.122v4.07a1.672,1.672,0,0,0,.374,1.122,1.211,1.211,0,0,0,.968.44,1.289,1.289,0,0,0,.979-.407,1.374,1.374,0,0,0,.385-.979v-.22a.255.255,0,0,1,.077-.187.255.255,0,0,1,.187-.077l2.024.022a.255.255,0,0,1,.187.077.255.255,0,0,1,.077.187v.4A3.119,3.119,0,0,1,7.59-.759,4.16,4.16,0,0,1,4.73.176Zm9.614,0a4.059,4.059,0,0,1-3-1.133,4.059,4.059,0,0,1-1.133-3v-7.5a4.014,4.014,0,0,1,1.133-3,4.1,4.1,0,0,1,3-1.111,4.172,4.172,0,0,1,3.036,1.111,3.993,3.993,0,0,1,1.144,3v.264a.293.293,0,0,1-.077.2.24.24,0,0,1-.187.088l-2.046.088a.233.233,0,0,1-.264-.264v-.55a1.792,1.792,0,0,0-.44-1.254,1.5,1.5,0,0,0-1.166-.484,1.474,1.474,0,0,0-1.144.484,1.792,1.792,0,0,0-.44,1.254v7.876a1.792,1.792,0,0,0,.44,1.254,1.474,1.474,0,0,0,1.144.484,1.5,1.5,0,0,0,1.166-.484,1.792,1.792,0,0,0,.44-1.254v-.55a.255.255,0,0,1,.077-.187.255.255,0,0,1,.187-.077l2.046.088a.255.255,0,0,1,.187.077.255.255,0,0,1,.077.187v.264a4.038,4.038,0,0,1-1.144,3A4.126,4.126,0,0,1,14.344.176Z" transform="translate(7.616 148.892)" fill="#fff"/>
      <rect id="Retângulo_1477" data-name="Retângulo 1477" width="38.41" height="38.41" transform="translate(0 189.706)" fill="#868789"/>
      <rect id="Retângulo_1616" data-name="Retângulo 1616" width="38.41" height="38.41" transform="translate(0 71.706)" fill="#868789"/>
      <path id="Caminho_8579" data-name="Caminho 8579" d="M4.73.176A4.029,4.029,0,0,1,1.881-.792,3.4,3.4,0,0,1,.836-3.41V-7.854a3.376,3.376,0,0,1,1.045-2.585,4,4,0,0,1,2.849-.979,4.1,4.1,0,0,1,2.86.957A3.137,3.137,0,0,1,8.646-8.03v.308a.255.255,0,0,1-.077.187.255.255,0,0,1-.187.077L6.358-7.37a.233.233,0,0,1-.264-.264v-.22a1.347,1.347,0,0,0-.385-.957,1.289,1.289,0,0,0-.979-.407,1.211,1.211,0,0,0-.968.44,1.672,1.672,0,0,0-.374,1.122v4.07a1.672,1.672,0,0,0,.374,1.122,1.211,1.211,0,0,0,.968.44,1.289,1.289,0,0,0,.979-.407,1.374,1.374,0,0,0,.385-.979v-.22a.255.255,0,0,1,.077-.187.255.255,0,0,1,.187-.077l2.024.022a.255.255,0,0,1,.187.077.255.255,0,0,1,.077.187v.4A3.119,3.119,0,0,1,7.59-.759,4.16,4.16,0,0,1,4.73.176Zm14.124-4.4A4.067,4.067,0,0,1,17.677-1.1,4.314,4.314,0,0,1,14.608,0H10.736a.255.255,0,0,1-.187-.077.255.255,0,0,1-.077-.187V-15.136a.255.255,0,0,1,.077-.187.255.255,0,0,1,.187-.077h3.476a4.761,4.761,0,0,1,3.278,1.056,3.9,3.9,0,0,1,1.188,3.08A3.475,3.475,0,0,1,17.072-8.03q-.11.066-.044.132A3.826,3.826,0,0,1,18.37-6.424,4.683,4.683,0,0,1,18.854-4.224ZM13.134-13.2a.1.1,0,0,0-.11.11V-9a.1.1,0,0,0,.11.11h1.122a1.818,1.818,0,0,0,1.408-.55A2.224,2.224,0,0,0,16.17-11a2.378,2.378,0,0,0-.506-1.628,1.782,1.782,0,0,0-1.408-.572ZM14.41-2.222A1.7,1.7,0,0,0,15.8-2.838,2.668,2.668,0,0,0,16.3-4.576,2.849,2.849,0,0,0,15.8-6.369a1.662,1.662,0,0,0-1.386-.649H13.134a.1.1,0,0,0-.11.11v4.576a.1.1,0,0,0,.11.11Z" transform="translate(8.321 216.21)" fill="#fff"/>
      <path id="Caminho_8577" data-name="Caminho 8577" d="M4.73.176A4.029,4.029,0,0,1,1.881-.792,3.4,3.4,0,0,1,.836-3.41V-7.854a3.376,3.376,0,0,1,1.045-2.585,4,4,0,0,1,2.849-.979,4.1,4.1,0,0,1,2.86.957A3.137,3.137,0,0,1,8.646-8.03v.308a.255.255,0,0,1-.077.187.255.255,0,0,1-.187.077L6.358-7.37a.233.233,0,0,1-.264-.264v-.22a1.347,1.347,0,0,0-.385-.957,1.289,1.289,0,0,0-.979-.407,1.211,1.211,0,0,0-.968.44,1.672,1.672,0,0,0-.374,1.122v4.07a1.672,1.672,0,0,0,.374,1.122,1.211,1.211,0,0,0,.968.44,1.289,1.289,0,0,0,.979-.407,1.374,1.374,0,0,0,.385-.979v-.22a.255.255,0,0,1,.077-.187.255.255,0,0,1,.187-.077l2.024.022a.255.255,0,0,1,.187.077.255.255,0,0,1,.077.187v.4A3.119,3.119,0,0,1,7.59-.759,4.16,4.16,0,0,1,4.73.176ZM10.736,0a.255.255,0,0,1-.187-.077.255.255,0,0,1-.077-.187V-15.136a.255.255,0,0,1,.077-.187.255.255,0,0,1,.187-.077H14.5a4.066,4.066,0,0,1,3.025,1.144A4.155,4.155,0,0,1,18.656-11.2v7a4.155,4.155,0,0,1-1.133,3.058A4.066,4.066,0,0,1,14.5,0Zm2.288-2.31a.1.1,0,0,0,.11.11l1.32-.022A1.419,1.419,0,0,0,15.631-2.8,2.567,2.567,0,0,0,16.1-4.356v-6.688a2.506,2.506,0,0,0-.451-1.573,1.462,1.462,0,0,0-1.221-.583h-1.3a.1.1,0,0,0-.11.11Z" transform="translate(8.321 98.21)" fill="#fff"/>
      <line id="Linha_282" data-name="Linha 282" x2="348.783" transform="translate(51.119 53.233)" fill="none" stroke="#009035" stroke-width="0.93" stroke-dasharray="0 0 0 0 1.87 2.8 1.87 2.8"/>
      <line id="Linha_283" data-name="Linha 283" x2="217.881" transform="translate(48.253 122.158)" fill="none" stroke="#868789" stroke-width="0.94" stroke-dasharray="0 0 0 0 1.88 2.81 1.88 2.81"/>
      <line id="Linha_284" data-name="Linha 284" x2="218.214" transform="translate(50.164 227.068)" fill="none" stroke="#868789" stroke-width="0.93" stroke-dasharray="0 0 0 0 1.87 2.8 1.87 2.8"/>
      <line id="Linha_312" data-name="Linha 312" x2="218.214" transform="translate(50.203 71.706)" fill="none" stroke="#868789" stroke-width="0.93" stroke-dasharray="0 0 0 0 1.87 2.8 1.87 2.8"/>
      <line id="Linha_285" data-name="Linha 285" x2="349.738" transform="translate(50.164 293.338)" fill="none" stroke="#009035" stroke-width="0.93" stroke-dasharray="0 0 0 0 1.87 2.8 1.87 2.8"/>
      <path id="Caminho_8570" data-name="Caminho 8570" d="M2.76.1A2.214,2.214,0,0,1,1.122-.522,2.214,2.214,0,0,1,.5-2.16V-6.252A2.189,2.189,0,0,1,1.122-7.89,2.239,2.239,0,0,1,2.76-8.5a2.276,2.276,0,0,1,1.656.606A2.178,2.178,0,0,1,5.04-6.252v.144A.16.16,0,0,1,5-6a.131.131,0,0,1-.1.048L3.78-5.9a.127.127,0,0,1-.144-.144v-.3a.978.978,0,0,0-.24-.684A.818.818,0,0,0,2.76-7.3a.8.8,0,0,0-.624.264.978.978,0,0,0-.24.684v4.3a.978.978,0,0,0,.24.684A.8.8,0,0,0,2.76-1.1.818.818,0,0,0,3.4-1.368a.978.978,0,0,0,.24-.684v-.3a.139.139,0,0,1,.042-.1.139.139,0,0,1,.1-.042L4.9-2.448a.139.139,0,0,1,.1.042.139.139,0,0,1,.042.1v.144A2.2,2.2,0,0,1,4.416-.522,2.25,2.25,0,0,1,2.76.1ZM8.28.1A2.259,2.259,0,0,1,6.618-.528a2.227,2.227,0,0,1-.63-1.656V-6.216a2.227,2.227,0,0,1,.63-1.656A2.259,2.259,0,0,1,8.28-8.5a2.279,2.279,0,0,1,1.668.624,2.215,2.215,0,0,1,.636,1.656v4.032A2.215,2.215,0,0,1,9.948-.528,2.279,2.279,0,0,1,8.28.1Zm0-1.2a.843.843,0,0,0,.66-.282,1.066,1.066,0,0,0,.252-.738V-6.276a1.066,1.066,0,0,0-.252-.738A.843.843,0,0,0,8.28-7.3a.825.825,0,0,0-.654.282,1.082,1.082,0,0,0-.246.738v4.152a1.082,1.082,0,0,0,.246.738A.825.825,0,0,0,8.28-1.1ZM15.5-8.3a.2.2,0,0,1,.18-.1h1.1a.139.139,0,0,1,.1.042.139.139,0,0,1,.042.1V-.144a.139.139,0,0,1-.042.1.139.139,0,0,1-.1.042h-1.1a.139.139,0,0,1-.1-.042.139.139,0,0,1-.042-.1V-5.808q0-.048-.024-.048t-.048.036l-1.044,1.9q-.06.1-.108.1t-.108-.1l-1.044-1.9q-.024-.036-.048-.036t-.024.048V-.144a.139.139,0,0,1-.042.1.139.139,0,0,1-.1.042h-1.1a.139.139,0,0,1-.1-.042.139.139,0,0,1-.042-.1V-8.256a.139.139,0,0,1,.042-.1.139.139,0,0,1,.1-.042h1.1a.2.2,0,0,1,.18.1l1.164,2.052q.036.048.072,0Zm5.076-.108A2.031,2.031,0,0,1,21.7-8.1a2.08,2.08,0,0,1,.756.876,2.938,2.938,0,0,1,.27,1.284,2.568,2.568,0,0,1-.57,1.74,1.892,1.892,0,0,1-1.506.66h-1.02a.053.053,0,0,0-.06.06V-.144a.139.139,0,0,1-.042.1.139.139,0,0,1-.1.042h-1.1a.139.139,0,0,1-.1-.042.139.139,0,0,1-.042-.1V-8.268a.139.139,0,0,1,.042-.1.139.139,0,0,1,.1-.042Zm-.228,3.78a.865.865,0,0,0,.714-.342,1.462,1.462,0,0,0,.27-.93,1.535,1.535,0,0,0-.27-.954.854.854,0,0,0-.714-.354h-.72a.053.053,0,0,0-.06.06v2.46a.053.053,0,0,0,.06.06ZM27,0a.151.151,0,0,1-.156-.12l-1.02-3.444q-.024-.048-.06-.048h-.636a.053.053,0,0,0-.06.06V-.144a.139.139,0,0,1-.042.1.139.139,0,0,1-.1.042h-1.1a.139.139,0,0,1-.1-.042.139.139,0,0,1-.042-.1V-8.256a.139.139,0,0,1,.042-.1.139.139,0,0,1,.1-.042h2.256a2.061,2.061,0,0,1,1.122.306,2.046,2.046,0,0,1,.756.864,2.9,2.9,0,0,1,.27,1.278,2.692,2.692,0,0,1-.288,1.284,1.93,1.93,0,0,1-.8.816q-.048.012-.036.072L28.272-.168a.134.134,0,0,1,.012.06q0,.108-.132.108ZM25.128-7.2a.053.053,0,0,0-.06.06v2.388a.053.053,0,0,0,.06.06h.732a.859.859,0,0,0,.7-.336,1.416,1.416,0,0,0,.27-.912,1.441,1.441,0,0,0-.27-.918.853.853,0,0,0-.7-.342ZM29.352,0a.139.139,0,0,1-.1-.042.139.139,0,0,1-.042-.1V-8.256a.139.139,0,0,1,.042-.1.139.139,0,0,1,.1-.042h1.1a.139.139,0,0,1,.1.042.139.139,0,0,1,.042.1V-.144a.139.139,0,0,1-.042.1.139.139,0,0,1-.1.042Zm6.312-8.3a.2.2,0,0,1,.18-.1h1.1a.139.139,0,0,1,.1.042.139.139,0,0,1,.042.1V-.144a.139.139,0,0,1-.042.1.139.139,0,0,1-.1.042h-1.1a.139.139,0,0,1-.1-.042.139.139,0,0,1-.042-.1V-5.808q0-.048-.024-.048t-.048.036l-1.044,1.9q-.06.1-.108.1t-.108-.1l-1.044-1.9q-.024-.036-.048-.036t-.024.048V-.144a.139.139,0,0,1-.042.1.139.139,0,0,1-.1.042H32a.139.139,0,0,1-.1-.042.139.139,0,0,1-.042-.1V-8.256a.139.139,0,0,1,.042-.1A.139.139,0,0,1,32-8.4h1.1a.2.2,0,0,1,.18.1l1.164,2.052q.036.048.072,0Zm6.876.96a.139.139,0,0,1-.042.1.139.139,0,0,1-.1.042H39.8a.053.053,0,0,0-.06.06v2.268a.053.053,0,0,0,.06.06H41.34a.139.139,0,0,1,.1.042.139.139,0,0,1,.042.1v.924a.139.139,0,0,1-.042.1.139.139,0,0,1-.1.042H39.8a.053.053,0,0,0-.06.06v2.28a.053.053,0,0,0,.06.06H42.4a.139.139,0,0,1,.1.042.139.139,0,0,1,.042.1v.912a.139.139,0,0,1-.042.1A.139.139,0,0,1,42.4,0H38.5a.139.139,0,0,1-.1-.042.139.139,0,0,1-.042-.1V-8.256a.139.139,0,0,1,.042-.1.139.139,0,0,1,.1-.042h3.9a.139.139,0,0,1,.1.042.139.139,0,0,1,.042.1Zm4.44-.912a.139.139,0,0,1,.042-.1.139.139,0,0,1,.1-.042h1.092a.139.139,0,0,1,.1.042.139.139,0,0,1,.042.1V-.144a.139.139,0,0,1-.042.1.139.139,0,0,1-.1.042h-1.26A.151.151,0,0,1,46.8-.12L45.012-5.208q-.012-.036-.042-.03a.037.037,0,0,0-.03.042l.012,5.052a.139.139,0,0,1-.042.1.139.139,0,0,1-.1.042H43.716a.139.139,0,0,1-.1-.042.139.139,0,0,1-.042-.1V-8.256a.139.139,0,0,1,.042-.1.139.139,0,0,1,.1-.042h1.236a.151.151,0,0,1,.156.12l1.8,5.052q.012.036.042.03a.037.037,0,0,0,.03-.042ZM53.964-8.4a.139.139,0,0,1,.1.042.139.139,0,0,1,.042.1v.912a.139.139,0,0,1-.042.1.139.139,0,0,1-.1.042H52.44a.053.053,0,0,0-.06.06v7a.139.139,0,0,1-.042.1.139.139,0,0,1-.1.042h-1.1a.139.139,0,0,1-.1-.042.139.139,0,0,1-.042-.1v-7a.053.053,0,0,0-.06-.06h-1.44a.139.139,0,0,1-.1-.042.139.139,0,0,1-.042-.1v-.912a.139.139,0,0,1,.042-.1.139.139,0,0,1,.1-.042ZM56.94.1a2.259,2.259,0,0,1-1.662-.624,2.227,2.227,0,0,1-.63-1.656V-6.216a2.227,2.227,0,0,1,.63-1.656A2.259,2.259,0,0,1,56.94-8.5a2.279,2.279,0,0,1,1.668.624,2.215,2.215,0,0,1,.636,1.656v4.032a2.215,2.215,0,0,1-.636,1.656A2.279,2.279,0,0,1,56.94.1Zm0-1.2a.843.843,0,0,0,.66-.282,1.066,1.066,0,0,0,.252-.738V-6.276a1.066,1.066,0,0,0-.252-.738.843.843,0,0,0-.66-.282.825.825,0,0,0-.654.282,1.082,1.082,0,0,0-.246.738v4.152a1.082,1.082,0,0,0,.246.738A.825.825,0,0,0,56.94-1.1Z" transform="matrix(0.003, -1, 1, 0.003, 411.378, 282.655)" fill="#6e6f70"/>
      <rect id="Retângulo_1478" data-name="Retângulo 1478" width="35.33" height="60.145" transform="translate(401.409 146.055)" fill="#009035"/>
      <path id="Caminho_8581" data-name="Caminho 8581" d="M7.436,0A.248.248,0,0,1,7.15-.242l-.418-2.31q0-.11-.132-.11H3.388q-.132,0-.132.11L2.838-.242A.248.248,0,0,1,2.552,0h-2Q.242,0,.308-.286L3.564-15.158A.264.264,0,0,1,3.85-15.4H6.182a.264.264,0,0,1,.286.242L9.724-.286V-.2q0,.2-.242.2ZM3.652-4.774q-.022.11.11.11H6.2q.132,0,.11-.11L5.038-11.726q-.022-.066-.066-.066t-.066.066ZM11.484,0A.255.255,0,0,1,11.3-.077a.255.255,0,0,1-.077-.187V-15.136a.255.255,0,0,1,.077-.187.255.255,0,0,1,.187-.077h3.762a4.066,4.066,0,0,1,3.025,1.144A4.155,4.155,0,0,1,19.4-11.2v7a4.155,4.155,0,0,1-1.133,3.058A4.066,4.066,0,0,1,15.246,0Zm2.288-2.31a.1.1,0,0,0,.11.11l1.32-.022A1.419,1.419,0,0,0,16.379-2.8a2.567,2.567,0,0,0,.473-1.551v-6.688a2.506,2.506,0,0,0-.451-1.573A1.462,1.462,0,0,0,15.18-13.2h-1.3a.1.1,0,0,0-.11.11Z" transform="translate(408.158 185.63)" fill="#fff"/>
      <g id="Grupo_3519" data-name="Grupo 3519" transform="translate(201.175)">
        <path id="Caminho_8353" data-name="Caminho 8353" d="M236.082,12.444C249.219,72.015,264.3,93.39,255.82,120.99c-4.472,14.529-8.337,15.855-12.53,36.526-6.044,29.81-11.056,57.311-13.3,89.611-.721,10.5-2.064,8.927,1.687,20.376,2.883,8.8,2.146,16.772-2.375,23.324-6.9,9.975-44.552-.77-55.329-2.113-13.89-2.228-31.186,9.156-56.558,4a55.213,55.213,0,0,0-19.737,1.327c-12.416,1.147-15.937-.393-13.022-11.6,3.178-4.406,9.566-.8,11.482-1.72,7.387-4.93,11.433-1.572,18.247-4.341q29.9-15.331,59.817-30.662c10.794-5.749,10.27-18.705,11.466-30.318,3.341-34.921-6.06-82.945-1.736-127.644.753-15.347-.409-37.034-3.407-43.651C170.581,33.36,165.881,19.159,168.485.11" transform="translate(-83.692 -0.11)" fill="#ececed" fill-rule="evenodd"/>
        <path id="Caminho_8354" data-name="Caminho 8354" d="M236.082,12.444C249.219,72.015,264.3,93.39,255.82,120.99c-4.472,14.529-8.337,15.855-12.53,36.526-6.044,29.81-11.056,57.311-13.3,89.611-.721,10.5-2.064,8.927,1.687,20.376,2.883,8.8,2.146,16.772-2.375,23.324-6.9,9.975-44.552-.77-55.329-2.113-13.89-2.228-31.186,9.156-56.558,4a55.213,55.213,0,0,0-19.737,1.327c-12.416,1.147-15.937-.393-13.022-11.6,3.178-4.406,9.566-.8,11.482-1.72,7.387-4.93,11.433-1.572,18.247-4.341q29.9-15.331,59.817-30.662c10.794-5.749,10.27-18.705,11.466-30.318,3.341-34.921-6.06-82.945-1.736-127.644.753-15.347-.409-37.034-3.407-43.651C170.581,33.36,165.881,19.159,168.485.11" transform="translate(-83.692 -0.11)" fill="none" stroke="#868789" stroke-width="1.6"/>
        <path id="Caminho_8355" data-name="Caminho 8355" d="M160.452,17.326c-9.287-1.376-17.9-4.881-23.832-16.936A65,65,0,0,0,160.452,17.326Z" transform="translate(-49.927 0.069)" fill="#6e6f70" fill-rule="evenodd"/>
        <path id="Caminho_8356" data-name="Caminho 8356" d="M145.62,23.267A34.083,34.083,0,0,0,148.241,9.8c-.786-.229-1.556-.475-2.326-.753a66.335,66.335,0,0,1-.295,14.217Z" transform="translate(-44.186 5.593)" fill="#6e6f70" fill-rule="evenodd"/>
        <path id="Caminho_8357" data-name="Caminho 8357" d="M171.926,111.563c-7.633-13.742-13.759-30.826-13.906-61.193Q162.418,85.258,171.926,111.563Z" transform="translate(-36.275 31.953)" fill="#6e6f70" fill-rule="evenodd"/>
        <path id="Caminho_8358" data-name="Caminho 8358" d="M187.609,82.69C184.595,87.751,180.4,92.3,171,93.664A36.677,36.677,0,0,0,187.609,82.69Z" transform="translate(-27.995 52.571)" fill="#6e6f70" fill-rule="evenodd"/>
        <path id="Caminho_8359" data-name="Caminho 8359" d="M169.144,134.66c-7.387,21.981,5.028,42.734-15.364,38.672,5.6,2.408,11.941,1.818,14.168-5.143,2.162-6.8-2.866-18.492,1.2-33.529Z" transform="translate(-38.98 85.724)" fill="#6e6f70" fill-rule="evenodd"/>
        <path id="Caminho_8360" data-name="Caminho 8360" d="M152.484,161.223c-1.31-3.358-1.409-7.272,4.5-13.333C153.6,152.722,152.107,157.161,152.484,161.223Z" transform="translate(-40.272 94.164)" fill="#6e6f70" fill-rule="evenodd"/>
        <path id="Caminho_8361" data-name="Caminho 8361" d="M229.772,68.611Zm-89.546,1.556Zm-1.818-.786c.278-1.785,2.375-3.391,5.847-4.734l.115,3.063c-2.424.786-3.882,1.605-4.128,2.359a11.288,11.288,0,0,0,2.1,1.13,35.248,35.248,0,0,0,7.813,2.309c8.091,1.622,20.065,2.572,33.578,2.457a199.466,199.466,0,0,0,32.595-2.686c7.895-1.441,12.956-3.079,13.431-4.57a11.989,11.989,0,0,0-2.1-1.13c-.393-.18-.819-.377-1.294-.557l.36-3.292c.524.2,1.016.409,1.458.622,2.326,1.114,3.554,2.637,3.456,4.586a3.315,3.315,0,0,1-.049.442c-.475,3.047-6.224,5.569-15.118,7.207a200,200,0,0,1-32.775,2.7c-13.628.115-25.683-.852-33.807-2.473a35.615,35.615,0,0,1-8.091-2.408c-2.326-1.114-3.554-2.637-3.456-4.586a3.313,3.313,0,0,1,.049-.442Z" transform="translate(-48.832 40.475)" fill="#868789" fill-rule="evenodd"/>
        <path id="Caminho_8362" data-name="Caminho 8362" d="M202.107,139.923Zm-60.538.131Zm-1.228-.8c.18-1.785,1.605-3.341,3.947-4.652l.082,3.047c-1.638.753-2.621,1.54-2.784,2.309a7.872,7.872,0,0,0,1.409,1.163,19.362,19.362,0,0,0,5.291,2.441c5.471,1.753,13.562,2.9,22.7,3a91.115,91.115,0,0,0,22.047-2.162c5.323-1.327,8.763-2.866,9.074-4.357a7.641,7.641,0,0,0-1.425-1.163,7.471,7.471,0,0,0-.884-.557l.246-3.292c.36.213.688.426,1,.639a5.276,5.276,0,0,1,2.326,4.635,1.869,1.869,0,0,1-.033.442c-.328,3.03-4.21,5.471-10.237,6.961a91.13,91.13,0,0,1-22.161,2.178c-9.205-.1-17.362-1.261-22.849-3.014a19.46,19.46,0,0,1-5.471-2.539,5.276,5.276,0,0,1-2.326-4.635,3.487,3.487,0,0,1,.033-.442Z" transform="translate(-47.587 85.686)" fill="#868789" fill-rule="evenodd"/>
      </g>
      <path id="Caminho_8566" data-name="Caminho 8566" d="M83.173,192.607c.269-1.963,3.711-3.778,9.345-5.231l.242,2.635c-4.316,1.022-6.911,2.044-7.1,2.931.067.175.686.484,1.775.9a34.675,34.675,0,0,0,6.884,1.587c7.691,1.156,19.309,1.654,32.432,1.183a219.931,219.931,0,0,0,30.684-3.012c7.355-1.372,12.007-2.81,12.249-4.007-.067-.175-.686-.484-1.788-.9a24.028,24.028,0,0,0-3.711-1.022l.188-2.7a28.741,28.741,0,0,1,4.37,1.183c2.205.834,3.415,1.977,3.469,3.388a3.782,3.782,0,0,1-.013.4c-.336,2.5-5.782,4.733-14.32,6.32a220.359,220.359,0,0,1-31.02,3.052c-13.285.471-25.064-.04-32.863-1.21a37.2,37.2,0,0,1-7.382-1.721c-2.192-.834-3.415-1.963-3.456-3.375a3.779,3.779,0,0,1,.013-.4" transform="translate(206.676 -123.281)" fill="#878787"/>
    </g>
  </g>
</svg>
